<?xml version="1.0" encoding="UTF-8" standalone="no"?>
<svg
	xmlns:dc="http://purl.org/dc/elements/1.1/"
	xmlns:cc="http://creativecommons.org/ns#"
	xmlns:rdf="http://www.w3.org/1999/02/22-rdf-syntax-ns#"
	xmlns:svg="http://www.w3.org/2000/svg"
	xmlns="http://www.w3.org/2000/svg"
	xml:space="preserve"
	height="1080"
	width="1920">
	<rect
		style="fill:#303030"
		height="1080"
		width="1920"/>
	<path
		style="fill:#1793d1"
		d="m 959.965,354.08625 c -16.55,40.575 -26.53,67.116 -44.955,106.4855 11.295,11.975 25.16,25.9205 47.67999,41.672 -24.20999,-9.9635 -40.72499,-19.966 -53.06499,-30.3455 -23.585,49.2055 -60.53,119.30049 -135.505,254.01549 58.93,-34.02 104.61,-54.995 147.18,-63 -1.83,-7.86 -2.865,-16.365 -2.795,-25.24 l 0.07,-1.885 c 0.935,-37.755 20.575,-66.785 43.83499,-64.815 23.265,1.97001 41.35001,34.19001 40.41501,71.945 -0.175,7.105 -0.975,13.94 -2.375,20.275 42.105,8.24 87.3,29.16 145.43,62.72 -11.465,-21.105 -21.695,-40.125 -31.465,-58.245 -15.39,-11.925 -31.44,-27.45 -64.185,-44.255 22.505,5.845 38.62,12.59 51.18,20.135 C 1002.075,458.60125 994.02999,434.02575 959.965,354.08625 Z"/>
</svg>
