<?xml version="1.0" encoding="UTF-8" standalone="no"?>
<svg
	xmlns:dc="http://purl.org/dc/elements/1.1/"
	xmlns:cc="http://creativecommons.org/ns#"
	xmlns:rdf="http://www.w3.org/1999/02/22-rdf-syntax-ns#"
	xmlns:svg="http://www.w3.org/2000/svg"
	xmlns="http://www.w3.org/2000/svg"
	xml:space="preserve"
	height="1080"
	width="1920">
	<rect
		style="fill:#303030"
		height="1080"
		width="1920"/>
	<g>
		<g transform="matrix(0.5,0,0,0.5,0,-42.99975)">
			<path
				d="m 1919.93,708.175 c -33.1,81.15 -53.06,134.232 -89.91,212.971 22.59,23.95 50.32,51.841 95.36,83.344 -48.42,-19.927 -81.45,-39.932 -106.13,-60.691 -47.17,98.411 -121.06,238.601 -271.01,508.031 117.86,-68.04 209.22,-109.99 294.36,-126 -3.66,-15.72 -5.73,-32.73 -5.59,-50.48 l 0.14,-3.77 c 1.87,-75.51 41.15,-133.57 87.67,-129.63 46.53,3.94 82.7,68.38 80.83,143.89 -0.35,14.21 -1.95,27.88 -4.75,40.55 84.21,16.48 174.6,58.32 290.86,125.44 -22.93,-42.21 -43.39,-80.25 -62.93,-116.49 -30.78,-23.85 -62.88,-54.9 -128.37,-88.51 45.01,11.69 77.24,25.18 102.36,40.27 C 2004.15,917.205 1988.06,868.054 1919.93,708.175 Z"
				style="fill:#1793d1;fill-opacity:1"/>
		</g>
		<circle
			style="fill:none;fill-opacity:1;stroke:#1793d1;stroke-width:4;stroke-miterlimit:1.41420996;stroke-dasharray:none;stroke-opacity:1"
			cx="960"
			cy="540"
			r="254.25999"/>
	</g>
</svg>
